# xmcd
#
# Track frame offsets:
# 150
# 6367
# 28595
# 50736
# 79433
# 97470
# 113589
# 137051
# 157805
# 175103
# 193436
# 218628
#
# Disc length: 3204 seconds
#
#
# Revision: 0
# Processed by: cddbd v1.5.1PL2 Copyright (c) Steve Scherf et al.
# Submitted via: Nero 7, 0, 8, 2 
#
DISCID=a90c820c
DTITLE=The Eagles - The Ballads (Disk 2)
DYEAR=2006
DGENRE=Country
TTITLE0=The Ballads (Disk 2)
TTITLE1=The Ballads (Disk 2)
TTITLE2=The Ballads (Disk 2)
TTITLE3=The Ballads (Disk 2)
TTITLE4=The Ballads (Disk 2)
TTITLE5=The Ballads (Disk 2)
TTITLE6=The Ballads (Disk 2)
TTITLE7=The Ballads (Disk 2)
TTITLE8=The Ballads (Disk 2)
TTITLE9=The Ballads (Disk 2)
TTITLE10=The Ballads (Disk 2)
TTITLE11=The Ballads (Disk 2)
EXTD=
EXTT0=
EXTT1=
EXTT2=
EXTT3=
EXTT4=
EXTT5=
EXTT6=
EXTT7=
EXTT8=
EXTT9=
EXTT10=
EXTT11=
PLAYORDER=
